<svg width="48" height="56" viewBox="0 0 48 56" fill="none" xmlns="http://www.w3.org/2000/svg">
<path d="M2.24846 53.5976C6.47862 53.5976 10.6707 53.5976 14.9389 53.5976C14.9389 53.7329 14.9389 53.8006 14.9008 53.9021C14.7484 54.4435 14.596 54.9849 14.4816 55.5263C14.4435 55.7631 14.3292 55.8308 14.0624 55.8308C10.9374 55.8308 7.85057 55.8308 4.72558 55.8308C3.27742 55.8308 1.82926 55.8308 0.381095 55.8308C0.266767 55.8308 0.152438 55.8308 0 55.8308C0 38.6755 0 21.5541 0 4.43263C3.01065 4.43263 6.05942 4.43263 9.10818 4.43263C9.10818 2.94381 9.10818 1.45498 9.10818 0C16.7301 0 24.3139 0 31.9358 0C31.9358 1.45498 31.9358 2.94381 31.9358 4.43263C34.9846 4.43263 38.0333 4.43263 41.0821 4.43263C41.0821 4.56798 41.0821 4.70332 41.0821 4.80483C41.0821 9.20362 41.0821 13.6024 41.0821 18.0012C41.0821 18.2042 41.044 18.3396 40.8915 18.5088C40.2437 19.1855 39.5577 19.8622 38.8336 20.6066C38.8336 15.9033 38.8336 11.3015 38.8336 6.6997C26.6005 6.6997 14.4435 6.6997 2.24846 6.6997C2.24846 22.2985 2.24846 37.9311 2.24846 53.5976Z" fill="black"/>
<path d="M36.6613 26.3927C39.2146 29.0658 41.7299 31.7051 44.2832 34.3782C38.6811 40.2658 33.079 46.1196 27.4769 51.9734C24.9617 49.3002 22.4083 46.661 19.855 43.9879C25.4571 38.1679 31.0211 32.2803 36.6613 26.3927Z" fill="black"/>
<path d="M6.7832 17.7643C6.7832 17.0538 6.7832 16.3432 6.7832 15.5988C15.9295 15.5988 25.0377 15.5988 34.184 15.5988C34.184 16.3094 34.184 17.0199 34.184 17.7643C25.0758 17.7643 15.9295 17.7643 6.7832 17.7643Z" fill="black"/>
<path d="M38.7954 53.5976C38.7954 53.4284 38.7954 53.293 38.7954 53.1577C38.7954 50.0447 38.7954 46.8979 38.7954 43.7849C38.7954 43.548 38.8716 43.3788 39.024 43.2096C39.6719 42.5329 40.3198 41.8562 41.0438 41.1118C41.0438 46.0519 41.0438 50.8906 41.0438 55.7969C34.6795 55.7969 28.3152 55.7969 21.9128 55.7969V55.7631C22.5607 55.5601 23.2086 55.3571 23.8564 55.1879C25.4951 54.6803 27.0957 54.2066 28.7344 53.6991C28.925 53.6314 29.1537 53.5976 29.3442 53.5976C32.3549 53.5976 35.3655 53.5976 38.3762 53.5976C38.4905 53.5976 38.6048 53.5976 38.7954 53.5976Z" fill="black"/>
<path d="M34.184 24.5317C34.2983 25.0392 34.1459 25.4114 33.7648 25.7498C33.4218 26.0205 33.1931 26.4942 32.7739 26.6634C32.3547 26.8326 31.8593 26.7311 31.402 26.7311C23.3609 26.7311 15.3197 26.7311 7.27863 26.7311C7.12619 26.7311 6.97375 26.7311 6.7832 26.7311C6.7832 25.9867 6.7832 25.2761 6.7832 24.5317C15.9295 24.5317 25.0377 24.5317 34.184 24.5317Z" fill="black"/>
<path d="M45.0452 33.5662C42.4919 30.893 39.9767 28.2538 37.4233 25.5807C37.4614 25.513 37.5377 25.4453 37.5758 25.3776C38.2618 24.6671 38.9477 23.9227 39.6337 23.2121C40.3959 22.4338 41.3867 22.2308 42.2251 22.7384C42.4157 22.8399 42.6062 23.0091 42.7587 23.1782C44.2449 24.7347 45.7693 26.2912 47.2556 27.8816C48.2083 28.8628 48.2465 30.081 47.3699 31.0961C46.6459 31.8743 45.8837 32.6526 45.1596 33.397C45.1596 33.4985 45.1215 33.5323 45.0452 33.5662Z" fill="black"/>
<path d="M19.0927 44.8338C21.646 47.5069 24.1613 50.1462 26.7146 52.8193C23.1323 53.9021 19.6262 54.9511 16.0439 56C17.0348 52.2779 18.0638 48.5897 19.0927 44.8338Z" fill="black"/>
<path d="M26.2572 33.4985C25.5331 34.2091 24.8852 34.9197 24.1992 35.5964C24.123 35.6641 23.9325 35.6979 23.8181 35.6979C22.4843 35.6979 21.1505 35.6979 19.8166 35.6979C15.6246 35.6979 11.4707 35.6979 7.2786 35.6979C7.12616 35.6979 6.97373 35.6979 6.82129 35.6979C6.82129 34.9535 6.82129 34.2429 6.82129 33.4985C13.2618 33.4985 19.7404 33.4985 26.2572 33.4985Z" fill="black"/>
</svg>
