<?xml version="1.0" encoding="UTF-8"?>
<!DOCTYPE svg PUBLIC "-//W3C//DTD SVG 1.0//EN" "http://www.w3.org/TR/2001/REC-SVG-20010904/DTD/svg10.dtd">
<!-- Creator: CorelDRAW 2021.5 -->
<svg xmlns="http://www.w3.org/2000/svg" xml:space="preserve" width="312px" height="269px" version="1.0" style="shape-rendering:geometricPrecision; text-rendering:geometricPrecision; image-rendering:optimizeQuality; fill-rule:evenodd; clip-rule:evenodd"
viewBox="0 0 16200 14000"
 xmlns:xlink="http://www.w3.org/1999/xlink"
 xmlns:xodm="http://www.corel.com/coreldraw/odm/2003">
 <defs>
  <style type="text/css">
   <![CDATA[
    .fil1 {fill:white}
    .fil0 {fill:#D9D9D9}
   ]]>
  </style>
 </defs>
 <g id="Слой_x0020_1">
  <metadata id="CorelCorpID_0Corel-Layer"/>
  <g id="_2232159587408">
   <path class="fil0" d="M2000 1500l100 0 100 0 0 700c0,700 600,1300 1300,1300 700,0 1200,-600 1200,-1300l0 -700 600 0 700 0 900 0 0 700c0,700 500,1300 1200,1300 700,0 1300,-600 1300,-1300l0 -700 900 0 700 0 500 0 0 700c0,700 600,1300 1300,1300 700,0 1300,-600 1300,-1300l0 -700 100 0 0 0c1100,0 2000,900 2000,2000l0 8500c0,1100 -900,2000 -2000,2000l-12200 0c-1100,0 -2000,-900 -2000,-2000l0 -8500c0,-1100 900,-2000 2000,-2000zm1000 3200l10200 0c500,0 900,400 900,900l0 5400c0,500 -400,900 -900,900l-10200 0c-500,0 -900,-400 -900,-900l0 -5400c0,-500 400,-900 900,-900zm9800 -4700l0 0c400,0 700,300 700,700l0 1500c0,400 -300,700 -700,700l0 0c-400,0 -700,-300 -700,-700l0 -1500c0,-400 300,-700 700,-700zm-9300 0l0 0c400,0 700,300 700,700l0 1500c0,400 -300,700 -700,700l0 0c-400,0 -700,-300 -700,-700l0 -1500c0,-400 300,-700 700,-700zm4600 0l0 0c400,0 700,300 700,700l0 1500c0,400 -300,700 -700,700l0 0c-300,0 -700,-300 -700,-700l0 -1500c0,-400 400,-700 700,-700z"/>
   <rect class="fil1" x="2100" y="4700" width="12000" height="7200" rx="600" ry="900"/>
  </g>
 </g>
</svg>
