<svg width="48" height="45" viewBox="0 0 48 45" fill="none" xmlns="http://www.w3.org/2000/svg">
<path d="M36 19.7705V7.8525L27.621 0H0V45H36V44.917C42.7485 44.2139 47.997 38.8561 48 32.3438C47.997 25.8272 42.7485 20.4694 36 19.7705ZM26.997 3.39328L32.379 8.4375H26.997V3.39328ZM3 42.1875V2.80969H24V11.2486H33V19.7705C30.372 20.0433 27.972 21.022 26.022 22.5H6V25.3125H23.2755C22.6575 26.1787 22.161 27.1252 21.7845 28.125H6V30.9375H21.0885C21.033 31.4002 21 31.867 21 32.3438C21 36.322 22.962 39.87 26.025 42.1875H3ZM34.5 42.023C28.7985 42.0103 24.186 37.6861 24.174 32.3438C24.186 26.9986 28.7985 22.6744 34.5 22.6617C40.1985 22.6744 44.811 26.9986 44.8245 32.3438C44.811 37.6861 40.1985 42.0103 34.5 42.023Z" fill="#010002"/>
<path d="M30 16.875H6V19.6875H30V16.875Z" fill="#010002"/>
<path d="M36 30.9375H33V39.375H36V30.9375Z" fill="#010002"/>
<path d="M36 25.3125H33V28.125H36V25.3125Z" fill="#010002"/>
</svg>
